<svg width="1667" height="844" viewBox="0 0 1667 844" fill="none" xmlns="http://www.w3.org/2000/svg">
<path fill-rule="evenodd" clip-rule="evenodd" d="M479.316 693.583C476.885 696.247 474.461 698.904 472.043 701.553L474.772 717.784L486.026 686.229L486.736 685.453C486.976 685.189 487.217 684.926 487.457 684.662C508.944 696.339 527.185 706.221 540.85 713.578L545.386 785.181L558.956 723.265C563.922 725.895 566.969 727.471 567.808 727.825C568.985 728.32 565.884 726.147 559.283 721.774L558.956 723.265C554.437 720.872 548.328 717.604 540.85 713.578L540.598 709.572C528.063 701.457 511.756 690.982 492.77 678.84L487.457 684.662L486.724 684.264L486.026 686.229C483.973 688.479 481.924 690.725 479.88 692.966L479.316 693.583ZM578.633 633.492L590.284 637.402L579.494 629.558L578.633 633.492ZM580.408 625.389L588.993 630.679L580.623 624.413L580.408 625.389ZM586.894 595.797L607.812 595.312L589.939 581.892L586.894 595.797ZM758.532 669.235C763.576 679.418 766.039 683.74 765.207 680.601C764.739 678.838 762.438 674.959 758.532 669.235ZM392.793 724.818L401.499 749.752L396.924 756.998L385.508 731.856L389.442 728.056C390.555 726.981 391.672 725.902 392.793 724.818ZM286.465 741.983C287.625 741.353 289.956 739.068 293.312 735.342C287.017 740.632 284.401 743.106 286.465 741.983ZM405.056 774.904L395.622 785.234C376.468 806.205 358.492 825.888 342.178 843.737L396.924 756.998L405.056 774.904ZM405.056 774.904L427.629 824.622L408.832 770.767C408.205 771.453 407.581 772.138 406.957 772.821L405.056 774.904ZM579.293 278.544L580.214 279.149L608.151 236.146L563.52 243.574L566.817 250.885C570.853 259.837 575.018 269.076 579.293 278.544ZM506.982 179.13L530.354 158.48L505.875 161.68L503.216 119.717L474.304 146.604L479.043 165.182L505.875 161.68L506.982 179.13ZM437.805 136.557L436.514 134.655L436.738 136.901L416.983 143.301L422.673 90.6443L411.237 104.187L411.893 144.946L416.983 143.301L414.099 169.968L434.645 183.472L440.817 177.734L436.738 136.901L437.805 136.557ZM331.751 115.847L330.316 114.902L327.476 119.889L331.751 115.847ZM236.107 130.887L191.245 83.2808L184.939 168.291L201.943 155.859C198.596 143.037 195.401 130.788 192.396 119.252L216.809 144.992L236.107 130.887ZM98.2454 328.273L96.1713 338.499L103.539 331.532L98.2454 328.273ZM242.368 646.961L213.5 671.44C205.444 695.657 201.2 709.216 202.429 707.476C204.065 705.158 222.071 681.602 249.693 645.576L242.368 646.961ZM337.051 653.422L335.348 656.046C336.256 658.821 336.738 659.941 336.754 659.211C336.769 658.577 336.873 656.606 337.051 653.422ZM425.74 640.926C424.654 643.008 425.443 639.495 427.713 631.593C427.009 636.558 426.35 639.755 425.74 640.926ZM229.715 511.809C229.817 511.874 229.919 511.938 230.022 512.003L230.242 512.141L230.264 512.155L230.487 512.296L230.497 512.303L230.758 512.467L227.095 515.416L219.212 512.77L229.715 511.809Z" fill="white"/>
<path fill-rule="evenodd" clip-rule="evenodd" d="M230.242 512.141C230.249 512.146 230.257 512.151 230.264 512.155L230.242 512.141Z" fill="white"/>
<path fill-rule="evenodd" clip-rule="evenodd" d="M229.715 511.809L219.212 512.77L227.095 515.416L230.758 512.467L230.497 512.303L230.487 512.296L230.264 512.155L230.242 512.141L230.022 512.003C229.919 511.938 229.817 511.874 229.715 511.809Z" fill="white"/>
<path fill-rule="evenodd" clip-rule="evenodd" d="M229.715 511.809L219.212 512.77L227.095 515.416L230.758 512.467L230.497 512.303L230.487 512.296L230.264 512.155L230.242 512.141L230.022 512.003C229.919 511.938 229.817 511.874 229.715 511.809Z" fill="white"/>
<path fill-rule="evenodd" clip-rule="evenodd" d="M229.715 511.809L219.212 512.77L227.095 515.416L230.758 512.467L230.497 512.303L230.487 512.296L230.264 512.155L230.242 512.141L230.022 512.003C229.919 511.938 229.817 511.874 229.715 511.809Z" fill="white"/>
<path fill-rule="evenodd" clip-rule="evenodd" d="M229.715 511.809L219.212 512.77L227.095 515.416L230.758 512.467L230.497 512.303L230.487 512.296L230.264 512.155L230.242 512.141L230.022 512.003C229.919 511.938 229.817 511.874 229.715 511.809Z" fill="white"/>
<path fill-rule="evenodd" clip-rule="evenodd" d="M229.715 511.809L219.212 512.77L227.095 515.416L230.758 512.467L230.497 512.303L230.487 512.296L230.264 512.155L230.242 512.141L230.022 512.003C229.919 511.938 229.817 511.874 229.715 511.809Z" fill="white"/>
<path fill-rule="evenodd" clip-rule="evenodd" d="M229.715 511.809C229.817 511.874 229.919 511.938 230.022 512.003L230.242 512.141L230.264 512.155L230.487 512.296L230.497 512.303L230.758 512.467L227.095 515.416L219.212 512.77L229.715 511.809Z" fill="white"/>
<path fill-rule="evenodd" clip-rule="evenodd" d="M229.715 511.809C229.817 511.874 229.919 511.938 230.022 512.003L230.242 512.141L230.264 512.155L230.487 512.296L230.497 512.303L230.758 512.467L227.095 515.416L219.212 512.77L229.715 511.809Z" fill="white"/>
<path fill-rule="evenodd" clip-rule="evenodd" d="M229.715 511.809C229.817 511.874 229.919 511.938 230.022 512.003L230.242 512.141L230.264 512.155L230.487 512.296L230.497 512.303L230.758 512.467L227.095 515.416L219.212 512.77L229.715 511.809Z" fill="white"/>
<path fill-rule="evenodd" clip-rule="evenodd" d="M229.715 511.809C229.817 511.874 229.919 511.938 230.022 512.003L230.242 512.141L230.264 512.155L230.487 512.296L230.497 512.303L230.758 512.467L227.095 515.416L219.212 512.77L229.715 511.809Z" fill="white"/>
<path fill-rule="evenodd" clip-rule="evenodd" d="M229.715 511.809C229.817 511.874 229.919 511.938 230.022 512.003L230.242 512.141L230.264 512.155L230.487 512.296L230.497 512.303L230.758 512.467L227.095 515.416L219.212 512.77L229.715 511.809Z" fill="white"/>
<path fill-rule="evenodd" clip-rule="evenodd" d="M229.715 511.809C229.817 511.874 229.919 511.938 230.022 512.003L230.242 512.141L230.264 512.155L230.487 512.296L230.497 512.303L230.758 512.467L227.095 515.416L219.212 512.77L229.715 511.809Z" fill="white"/>
<path fill-rule="evenodd" clip-rule="evenodd" d="M229.715 511.809C229.817 511.874 229.919 511.938 230.022 512.003L230.242 512.141L230.264 512.155L230.487 512.296L230.497 512.303L230.758 512.467L227.095 515.416L219.212 512.77L229.715 511.809ZM619.42 384.545L614.222 385.975L610.719 384.231L619.42 384.545ZM621.701 331.894L609.25 340.7L609.734 339.339L593.356 334.646L621.701 331.894Z" fill="white"/>
<path fill-rule="evenodd" clip-rule="evenodd" d="M229.715 511.809C229.817 511.874 229.919 511.938 230.022 512.003L230.242 512.141L230.264 512.155L230.487 512.296L230.497 512.303L230.758 512.467L227.095 515.416L219.212 512.77L229.715 511.809Z" fill="white"/>
<path fill-rule="evenodd" clip-rule="evenodd" d="M229.715 511.809C229.817 511.874 229.919 511.938 230.022 512.003L230.242 512.141L230.264 512.155L230.487 512.296L230.497 512.303L230.758 512.467L227.095 515.416L219.212 512.77L229.715 511.809ZM619.42 384.545L614.222 385.975L610.719 384.231L619.42 384.545ZM621.701 331.894L609.25 340.7L609.734 339.339L593.356 334.646L621.701 331.894Z" fill="white"/>
<path fill-rule="evenodd" clip-rule="evenodd" d="M420.827 697.73L421.164 718.587L421.099 718.69L421.17 719.08L421.164 718.587L441.587 686.222L438.824 680.338C435.592 683.459 432.382 686.562 429.196 689.643L429.183 689.655C426.38 692.365 423.595 695.058 420.827 697.73ZM425.74 640.926C424.654 643.008 425.443 639.495 427.713 631.593C427.009 636.558 426.35 639.755 425.74 640.926Z" fill="white"/>
<path fill-rule="evenodd" clip-rule="evenodd" d="M229.715 511.809C229.817 511.874 229.919 511.938 230.022 512.003L230.242 512.141L230.264 512.155L230.487 512.296L230.497 512.303L230.758 512.467L227.095 515.416L219.212 512.77L229.715 511.809ZM619.42 384.545L614.222 385.975L610.719 384.231L619.42 384.545ZM621.701 331.894L609.25 340.7L609.734 339.339L593.356 334.646L621.701 331.894Z" fill="white"/>
<path fill-rule="evenodd" clip-rule="evenodd" d="M229.715 511.809C229.817 511.874 229.919 511.938 230.022 512.003L230.242 512.141L230.264 512.155L230.487 512.296L230.497 512.303L230.758 512.467L227.095 515.416L219.212 512.77L229.715 511.809ZM619.42 384.545L614.222 385.975L610.719 384.231L619.42 384.545ZM621.701 331.894L609.25 340.7L609.734 339.339L593.356 334.646L621.701 331.894Z" fill="white"/>
<path fill-rule="evenodd" clip-rule="evenodd" d="M229.715 511.809C229.817 511.874 229.919 511.938 230.022 512.003L230.242 512.141L230.264 512.155L230.487 512.296L230.497 512.303L230.758 512.467L227.095 515.416L219.212 512.77L229.715 511.809ZM619.42 384.545L614.222 385.975L610.719 384.231L619.42 384.545ZM621.701 331.894L609.25 340.7L609.734 339.339L593.356 334.646L621.701 331.894Z" fill="white"/>
<path fill-rule="evenodd" clip-rule="evenodd" d="M425.74 640.926C424.654 643.008 425.443 639.495 427.713 631.593C427.009 636.558 426.35 639.755 425.74 640.926ZM229.715 511.809L219.212 512.77L227.095 515.416L230.758 512.467L230.497 512.303L230.487 512.296L230.264 512.155L230.242 512.141L230.022 512.003C229.919 511.938 229.817 511.874 229.715 511.809ZM614.222 385.975L619.42 384.545L610.719 384.231L614.222 385.975ZM609.25 340.7L621.701 331.894L593.356 334.646L609.734 339.339L609.25 340.7Z" fill="white"/>
<path fill-rule="evenodd" clip-rule="evenodd" d="M229.715 511.809C229.817 511.874 229.919 511.938 230.022 512.003L230.242 512.141L230.264 512.155L230.487 512.296L230.497 512.303L230.758 512.467L227.095 515.416L219.212 512.77L229.715 511.809ZM619.42 384.545L614.222 385.975L610.719 384.231L619.42 384.545ZM621.701 331.894L609.25 340.7L609.734 339.339L593.356 334.646L621.701 331.894Z" fill="white"/>
<path fill-rule="evenodd" clip-rule="evenodd" d="M229.715 511.809C229.817 511.874 229.919 511.938 230.022 512.003L230.242 512.141L230.264 512.155L230.487 512.296L230.497 512.303L230.758 512.467L227.095 515.416L219.212 512.77L229.715 511.809ZM619.42 384.545L614.222 385.975L610.719 384.231L619.42 384.545ZM621.701 331.894L609.25 340.7L609.734 339.339L593.356 334.646L621.701 331.894Z" fill="white"/>
<path fill-rule="evenodd" clip-rule="evenodd" d="M229.715 511.809C229.817 511.874 229.919 511.938 230.022 512.003L230.242 512.141L230.264 512.155L230.487 512.296L230.497 512.303L230.758 512.467L227.095 515.416L219.212 512.77L229.715 511.809ZM619.42 384.545L614.222 385.975L610.719 384.231L619.42 384.545ZM621.701 331.894L609.25 340.7L609.734 339.339L593.356 334.646L621.701 331.894Z" fill="white"/>
<path fill-rule="evenodd" clip-rule="evenodd" d="M229.715 511.809C229.817 511.874 229.919 511.938 230.022 512.003L230.242 512.141L230.264 512.155L230.487 512.296L230.497 512.303L230.758 512.467L227.095 515.416L219.212 512.77L229.715 511.809ZM619.42 384.545L614.222 385.975L610.719 384.231L619.42 384.545ZM621.701 331.894L609.25 340.7L609.734 339.339L593.356 334.646L621.701 331.894Z" fill="white"/>
<path fill-rule="evenodd" clip-rule="evenodd" d="M425.74 640.926C424.654 643.008 425.443 639.495 427.713 631.593C427.009 636.558 426.35 639.755 425.74 640.926ZM229.715 511.809L219.212 512.77L227.095 515.416L230.758 512.467L230.497 512.303L230.487 512.296L230.264 512.155L230.242 512.141L230.022 512.003C229.919 511.938 229.817 511.874 229.715 511.809ZM614.222 385.975L619.42 384.545L610.719 384.231L614.222 385.975ZM609.25 340.7L621.701 331.894L593.356 334.646L609.734 339.339L609.25 340.7Z" fill="white"/>
<path fill-rule="evenodd" clip-rule="evenodd" d="M425.74 640.926C424.654 643.008 425.443 639.495 427.713 631.593C427.009 636.558 426.35 639.755 425.74 640.926ZM229.715 511.809L219.212 512.77L227.095 515.416L230.758 512.467L230.497 512.303L230.487 512.296L230.264 512.155L230.242 512.141L230.022 512.003C229.919 511.938 229.817 511.874 229.715 511.809ZM614.222 385.975L619.42 384.545L610.719 384.231L614.222 385.975ZM609.25 340.7L621.701 331.894L593.356 334.646L609.734 339.339L609.25 340.7Z" fill="white"/>
<path fill-rule="evenodd" clip-rule="evenodd" d="M425.74 640.926C424.654 643.008 425.443 639.495 427.713 631.593C427.009 636.558 426.35 639.755 425.74 640.926ZM229.715 511.809L219.212 512.77L227.095 515.416L230.758 512.467L230.497 512.303L230.487 512.296L230.264 512.155L230.242 512.141L230.022 512.003C229.919 511.938 229.817 511.874 229.715 511.809ZM614.222 385.975L619.42 384.545L610.719 384.231L614.222 385.975ZM609.25 340.7L621.701 331.894L593.356 334.646L609.734 339.339L609.25 340.7Z" fill="white"/>
<path fill-rule="evenodd" clip-rule="evenodd" d="M229.715 511.809C229.817 511.874 229.919 511.938 230.022 512.003L230.242 512.141L230.264 512.155L230.487 512.296L230.497 512.303L230.758 512.467L227.095 515.416L219.212 512.77L229.715 511.809ZM619.42 384.545L614.222 385.975L610.719 384.231L619.42 384.545ZM621.701 331.894L609.25 340.7L609.734 339.339L593.356 334.646L621.701 331.894Z" fill="white"/>
<path fill-rule="evenodd" clip-rule="evenodd" d="M229.715 511.809C229.817 511.874 229.919 511.938 230.022 512.003L230.242 512.141L230.264 512.155L230.487 512.296L230.497 512.303L230.758 512.467L227.095 515.416L219.212 512.77L229.715 511.809ZM619.42 384.545L614.222 385.975L610.719 384.231L619.42 384.545ZM621.701 331.894L609.25 340.7L609.734 339.339L593.356 334.646L621.701 331.894Z" fill="white"/>
<path fill-rule="evenodd" clip-rule="evenodd" d="M425.74 640.926C424.654 643.008 425.443 639.495 427.713 631.593C427.009 636.558 426.35 639.755 425.74 640.926ZM229.715 511.809L219.212 512.77L227.095 515.416L230.758 512.467L230.497 512.303L230.487 512.296L230.264 512.155L230.242 512.141L230.022 512.003C229.919 511.938 229.817 511.874 229.715 511.809ZM614.222 385.975L619.42 384.545L610.719 384.231L614.222 385.975ZM609.25 340.7L621.701 331.894L593.356 334.646L609.734 339.339L609.25 340.7Z" fill="white"/>
<path fill-rule="evenodd" clip-rule="evenodd" d="M229.715 511.809C229.817 511.874 229.919 511.938 230.022 512.003L230.242 512.141L230.264 512.155L230.487 512.296L230.497 512.303L230.758 512.467L227.095 515.416L219.212 512.77L229.715 511.809ZM619.42 384.545L614.222 385.975L610.719 384.231L619.42 384.545ZM621.701 331.894L609.25 340.7L609.734 339.339L593.356 334.646L621.701 331.894Z" fill="white"/>
<path fill-rule="evenodd" clip-rule="evenodd" d="M229.715 511.809C229.817 511.874 229.919 511.938 230.022 512.003L230.242 512.141L230.264 512.155L230.487 512.296L230.497 512.303L230.758 512.467L227.095 515.416L219.212 512.77L229.715 511.809ZM619.42 384.545L614.222 385.975L610.719 384.231L619.42 384.545ZM621.701 331.894L609.25 340.7L609.734 339.339L593.356 334.646L621.701 331.894ZM493.977 209.838L492.221 213.938L491.48 213.943L490.47 209.977L493.977 209.838Z" fill="white"/>
<path d="M472.043 701.553C474.461 698.904 476.885 696.247 479.316 693.583L479.88 692.966C481.924 690.725 483.973 688.479 486.026 686.229L486.724 684.264L487.457 684.662L492.77 678.84C495.088 676.299 497.411 673.753 499.738 671.202C501.513 669.257 503.29 667.308 505.069 665.358C516.801 672.887 528.194 680.189 539.18 687.222L540.598 709.572C548.361 714.597 554.675 718.721 559.283 721.774L563.453 702.746C642.339 753.137 694.713 785.963 691.394 782.151C687.907 778.153 641.868 721.023 577.1 640.477L578.633 633.492L579.494 629.558L580.408 625.389L580.623 624.413L586.894 595.797L589.939 581.892L607.812 595.312L833.333 764.646L649.689 569.767L677.691 564.459C716.311 612.676 745.863 650.666 758.532 669.235C748.963 649.915 730.104 609.503 706.839 558.936L922.335 518.097L698.09 539.893C689.713 521.637 680.881 502.332 671.797 482.426C671.93 482.281 672.062 482.133 672.194 481.988C693.707 458.349 714.091 435.931 732.733 415.405L794.304 419.862L753.209 392.85C802.422 338.602 835.52 301.862 838.212 298.23C841.255 294.124 802.597 330.647 743.929 386.754L663.814 334.096L724.156 238.484L651.743 299.878L677.445 182.609L586.519 283.294L580.214 279.149L579.293 278.544C575.018 269.076 570.853 259.837 566.817 250.885L563.52 243.574C562.98 242.377 562.443 241.186 561.908 240L560.211 236.24L560.199 236.214C558.785 233.081 557.39 229.99 556.018 226.945L579.513 186.275L521.183 213.662L512.68 213.742L516.289 188.757L508.276 199.525L506.982 179.13L505.875 161.68L479.043 165.182L474.304 146.604L469.15 126.401L437.805 136.557L436.738 136.901L440.817 177.734L434.645 183.472L414.099 169.968L416.983 143.301L411.893 144.946L411.237 104.187L410.226 41.6745L331.751 115.847L327.476 119.889L310.692 135.748L300.812 83.5856L236.107 130.887L216.809 144.992L192.396 119.252C195.401 130.788 198.596 143.037 201.943 155.859L184.939 168.291L126.099 211.298L75.6962 217.884L117.632 217.489L76.8859 247.272L82.6329 251.574L11.2836 274.681L98.2454 328.273L103.539 331.532L96.1713 338.499L68.6194 364.537L90.7292 365.341L90.0084 368.895L41.1162 365.357C54.9276 374.334 131.792 382.851 147.15 392.824L48.2316 483.107L195.026 453.155L125.26 504.148L13.8383 574.734L56.2789 535.273L42.4219 603.63L107.93 574.088L0.976562 692.708L148.109 664.823L143.198 731.042L213.5 671.44L242.368 646.961L249.693 645.576L261.13 643.405L261.133 643.597L262.496 735.087L286.64 693.298L239.041 804.275L335.348 656.046L337.051 653.422L344.612 641.782L353.135 660.561C325.848 695.971 304.198 723.255 293.312 735.342C304.832 725.663 328.67 706.555 358.668 682.768L349.611 766.533C356.073 760.285 362.786 753.802 369.717 747.109C374.865 742.137 380.134 737.05 385.508 731.856L389.442 728.056C390.555 726.981 391.672 725.902 392.793 724.818C395.562 722.144 398.356 719.443 401.175 716.719L401.635 716.275C406.907 711.18 412.266 706.002 417.701 700.752L421.099 718.69L401.499 749.752L408.832 770.767C414.413 764.656 420.082 758.45 425.825 752.163C435.903 741.131 446.211 729.847 456.684 718.375L492.108 793.817L467.203 706.852L469.604 704.223C470.416 703.334 471.23 702.444 472.043 701.553ZM421.164 718.587L421.17 719.08L421.099 718.69L421.164 718.587ZM421.164 718.587L420.827 697.73C423.595 695.058 426.38 692.365 429.183 689.655L429.196 689.643C432.382 686.562 435.592 683.459 438.824 680.338L441.587 686.222L421.164 718.587ZM425.74 640.926C424.654 643.008 425.443 639.495 427.713 631.593C427.009 636.558 426.35 639.755 425.74 640.926ZM229.715 511.809L219.212 512.77L227.095 515.416L230.758 512.467L230.497 512.303L230.487 512.296L230.264 512.155L230.242 512.141L230.022 512.003C229.919 511.938 229.817 511.874 229.715 511.809ZM614.222 385.975L619.42 384.545L610.719 384.231L614.222 385.975ZM609.25 340.7L621.701 331.894L593.356 334.646L609.734 339.339L609.25 340.7ZM493.977 209.838L492.221 213.938L491.48 213.943L490.47 209.977L493.977 209.838Z" fill="white"/>
<rect x="124.383" y="133.213" width="1178.98" height="237.982" transform="rotate(-6.45 124.383 133.213)" fill="white"/>
<rect x="153.922" y="380.038" width="1495.82" height="233.169" transform="rotate(-6.45 153.922 380.038)" fill="white"/>
</svg>
